<svg width="219" height="239" viewBox="0 0 219 239" fill="none" xmlns="http://www.w3.org/2000/svg">
<g id="iphone">
<g id="mobile-phone-svgrepo-com 1">
<g id="Group">
<g id="Group_2">
<path id="Vector" d="M157.266 162.202V7.80151C157.266 3.50119 153.788 0 149.516 0H69.4895C65.2118 0 61.7339 3.50119 61.7339 7.80151V162.201C61.7339 166.501 65.2145 170 69.4895 170H149.516C153.788 170 157.266 166.502 157.266 162.202ZM65.9864 162.202V7.80151C65.9864 5.86128 67.555 4.28033 69.4868 4.28033H149.513C151.442 4.28033 153.008 5.86128 153.008 7.80151V162.201C153.008 164.142 151.439 165.72 149.513 165.72H69.4895C67.5551 165.72 65.9864 164.142 65.9864 162.202Z" fill="black"/>
<path id="Vector_2" d="M150.889 143.648V16.9214C150.889 16.3308 150.413 15.8513 149.826 15.8513H69.1718C68.5847 15.8513 68.108 16.3305 68.108 16.9214V143.648C68.108 144.239 68.5845 144.718 69.1718 144.718H149.825C150.413 144.718 150.889 144.239 150.889 143.648ZM145.925 142.578H73.0725C71.5068 142.578 70.2359 141.3 70.2359 139.725V20.8448C70.2359 19.2698 71.5068 17.9915 73.0725 17.9915H145.925C147.491 17.9915 148.762 19.2698 148.762 20.8448V139.724C148.762 141.3 147.491 142.578 145.925 142.578Z" fill="black"/>
<path id="Vector_3" d="M104.869 10.8775C106.228 11.2914 107.967 11.4996 110.043 11.4996C112.12 11.4996 113.862 11.2914 115.217 10.8775C116.125 10.6008 116.426 9.99299 116.403 9.51644C116.386 9.01721 116.009 8.40637 115.019 8.1951C113.926 7.96413 112.176 7.67886 110.06 7.63589L109.64 7.6329C107.663 7.6329 106.043 7.91281 105.042 8.14646C104.06 8.37205 103.695 8.99124 103.68 9.49913C103.664 9.98434 103.967 10.6035 104.869 10.8775ZM110.035 9.06555C110.869 9.08285 111.643 9.13687 112.336 9.21415C113.603 9.35381 113.615 9.84767 112.347 9.973C111.643 10.0413 110.874 10.0756 110.043 10.0756C109.189 10.0756 108.401 10.0386 107.68 9.96733C106.381 9.83603 106.302 9.31113 107.484 9.17984C108.128 9.10852 108.852 9.06286 109.638 9.06286L110.035 9.06555Z" fill="black"/>
<path id="Vector_4" d="M144.512 12.0445C145.871 12.0445 146.977 10.9318 146.977 9.56478C146.977 8.20077 145.869 7.08801 144.512 7.08801C143.154 7.08801 142.047 8.20077 142.047 9.56478C142.047 10.9348 143.156 12.0445 144.512 12.0445ZM144.512 8.51499C145.088 8.51499 145.559 8.98587 145.559 9.56507C145.559 10.1473 145.088 10.6178 144.512 10.6178C143.936 10.6178 143.466 10.1443 143.466 9.56507C143.465 8.98557 143.936 8.51499 144.512 8.51499Z" fill="black"/>
<path id="Vector_5" d="M79.8948 149.307L77.5061 150.936C77.4352 150.984 76.6156 151.547 76.6156 151.547C76.2893 151.769 76.2071 152.212 76.4284 152.537C76.5675 152.739 76.7885 152.851 77.0155 152.851C77.0552 152.851 77.092 152.839 77.1288 152.825C77.1884 152.802 77.2365 153.507 77.2365 154.406V156.03C77.2365 156.423 77.5572 156.743 77.9458 156.743H82.5329C82.9215 156.743 83.2421 156.423 83.2421 156.03C83.2421 156.03 83.2421 155.299 83.2421 154.397C83.2421 153.495 83.4406 152.85 83.6818 152.794C83.8236 152.759 83.9485 152.682 84.0419 152.548C84.2689 152.226 84.1923 151.781 83.869 151.552L80.7031 149.315C80.4649 149.141 80.1442 149.141 79.8948 149.307ZM80.238 155.319C79.3614 155.319 78.6524 154.549 78.6524 153.598C78.6524 152.648 79.0182 151.629 79.4694 151.321C79.9206 151.013 80.6296 151.007 81.055 151.307C81.4777 151.606 81.8209 152.625 81.8209 153.584C81.8209 154.543 81.1116 155.319 80.238 155.319Z" fill="black"/>
<path id="Vector_6" d="M101.369 150.793H96.0385C95.6443 150.793 95.3292 151.113 95.3292 151.507C95.3292 151.901 95.6443 152.22 96.0385 152.22H101.369C101.763 152.22 102.078 151.901 102.078 151.507C102.078 151.113 101.763 150.793 101.369 150.793Z" fill="black"/>
<path id="Vector_7" d="M101.369 153.039H96.0385C95.6443 153.039 95.3292 153.358 95.3292 153.752C95.3292 154.146 95.6443 154.466 96.0385 154.466H101.369C101.763 154.466 102.078 154.146 102.078 153.752C102.078 153.356 101.763 153.039 101.369 153.039Z" fill="black"/>
<path id="Vector_8" d="M101.369 155.319H96.0385C95.6443 155.319 95.3292 155.638 95.3292 156.032C95.3292 156.426 95.6443 156.746 96.0385 156.746H101.369C101.763 156.746 102.078 156.426 102.078 156.032C102.078 155.638 101.763 155.319 101.369 155.319Z" fill="black"/>
<path id="Vector_9" d="M117.535 152.291C117.161 152.294 116.86 152.058 116.86 151.764C116.86 151.47 116.174 151.629 115.328 152.12C114.483 152.611 114.483 153.407 115.328 153.898C116.174 154.389 116.86 154.549 116.86 154.252C116.86 153.958 117.161 153.715 117.53 153.715L118.199 153.712C118.803 153.706 119.197 153.869 119.473 154.194C120.032 154.86 119.972 156.124 119.898 156.557C119.865 156.751 119.913 156.939 120.017 157.088C120.193 157.339 120.744 157.41 120.999 157.248C121.158 157.145 121.26 156.988 121.294 156.799C121.334 156.574 121.643 154.568 120.557 153.275C120.174 152.821 119.459 152.285 118.214 152.285C118.205 152.286 117.87 152.288 117.535 152.291Z" fill="black"/>
<path id="Vector_10" d="M133.781 152.434C133.781 153.966 135.018 155.21 136.541 155.21C136.638 155.21 136.729 155.193 136.817 155.17C136.964 155.13 137.279 155.522 137.52 156.041L137.954 156.98C138.071 157.239 138.331 157.394 138.598 157.394C138.697 157.394 138.796 157.374 138.899 157.328C139.253 157.162 139.409 156.737 139.242 156.38C139.242 156.38 139.046 155.955 138.805 155.433C138.564 154.911 138.785 154.143 139.058 153.561C139.217 153.219 139.31 152.839 139.31 152.434C139.31 150.902 138.068 149.655 136.545 149.655C135.015 149.657 133.781 150.904 133.781 152.434ZM136.541 153.784C135.798 153.784 135.199 153.179 135.199 152.434C135.199 151.69 135.798 151.082 136.541 151.082C137.284 151.082 137.888 151.687 137.888 152.434C137.886 153.179 137.281 153.784 136.541 153.784Z" fill="black"/>
</g>
</g>
</g>
</g>
</svg>
