<svg width="55" height="52" viewBox="0 0 55 52" fill="none" xmlns="http://www.w3.org/2000/svg">
<g id="user">
<path id="Path 4" d="M12.6042 42.25C12.6042 42.25 20.6251 39 22.9167 36.8333C25.2084 34.6667 18.3334 34.6667 18.3334 23.8333C18.3334 13 27.5001 13 27.5001 13C27.5001 13 36.6667 13 36.6667 23.8333C36.6667 34.6667 29.7917 34.6667 32.0834 36.8333C34.3751 39 42.3959 42.25 42.3959 42.25" stroke="black" stroke-width="2" stroke-linecap="round"/>
<path id="Oval" fill-rule="evenodd" clip-rule="evenodd" d="M27.4999 47.6667C40.1564 47.6667 50.4166 37.9662 50.4166 26C50.4166 14.0338 40.1564 4.33333 27.4999 4.33333C14.8434 4.33333 4.58325 14.0338 4.58325 26C4.58325 37.9662 14.8434 47.6667 27.4999 47.6667Z" stroke="black" stroke-width="2"/>
</g>
</svg>
